<svg width="384" height="75" viewBox="0 0 384 75" fill="none" xmlns="http://www.w3.org/2000/svg">
<path d="M111.447 62.1939C125.254 62.3005 136.34 51.6322 136.507 38.0735C136.682 24.0176 125.777 12.8017 111.857 12.7141C98.0005 12.6272 86.8584 23.5252 86.7198 37.2993C86.583 51.082 97.5122 62.0836 111.447 62.1935V62.1939ZM149.11 37.8521C149.018 58.211 132.236 74.587 111.526 74.5225C90.8686 74.4576 74.2741 57.9221 74.3334 37.4667C74.3934 16.8211 91.1955 0.203982 111.902 0.313573C132.52 0.417945 149.199 17.2476 149.11 37.8521Z" fill="white"/>
<path d="M226.362 37.6855C226.41 23.8539 215.475 12.7868 201.688 12.7148C187.831 12.6399 176.697 23.5475 176.57 37.3198C176.445 51.1021 187.381 62.0892 201.317 62.1935C215.296 62.2957 226.313 51.5151 226.362 37.6851V37.6855ZM238.96 37.7906C238.903 58.1487 222.136 74.565 201.439 74.5202C180.764 74.4777 164.189 58.0168 164.187 37.5285C164.184 16.9113 180.978 0.249081 201.69 0.311331C222.296 0.376191 239.02 17.1902 238.96 37.7906H238.96Z" fill="white"/>
<path d="M251.959 74.0118V43.7361H264.088C264.085 49.7055 264.085 55.5425 264.085 61.3251C281.066 63.9258 295.66 60.6358 300.766 43.032C304.87 28.8788 293.547 13.4138 278.737 12.6053C275.038 12.4055 271.289 12.7943 267.622 12.3958C265.636 12.1818 263.47 11.2485 261.907 9.99599C258.552 7.31065 255.54 4.2067 251.724 0.661773C253.547 0.388169 254.301 0.171224 255.057 0.176443C263.831 0.236457 272.706 -0.465818 281.365 0.57492C300.494 2.86961 314.127 18.9873 313.871 37.8447C313.617 56.4509 299.585 72.0131 280.392 73.8575C271.117 74.7488 261.683 74.0122 251.959 74.0122V74.0118Z" fill="white"/>
<path d="M358.982 37.4667C346.028 24.6427 333.971 12.7044 321.532 0.388138H383.032C383.032 3.62665 383.228 6.91698 382.893 10.1507C382.81 10.9226 380.971 12.0748 379.918 12.0946C371.759 12.2612 363.596 12.1792 355.432 12.1967C354.243 12.199 353.055 12.3186 351.624 12.3976C359.903 20.5551 367.918 28.4553 376.114 36.5348C375.126 37.6624 374.706 38.2047 374.221 38.6882C362.922 49.8646 351.667 61.0779 340.256 72.1372C339.016 73.3394 336.906 74.1166 335.142 74.2355C330.753 74.5318 326.33 74.3328 321.521 74.3328C334.111 61.9412 346.335 49.9119 358.982 37.4659L358.982 37.4667Z" fill="white"/>
<path d="M0.000494828 31.0071C2.29072 25.8895 3.71204 21.4309 6.11148 17.5706C17.8127 -1.25509 43.2944 -5.63611 60.713 7.87038C63.2694 9.85159 64.6609 11.9577 64.265 15.2834C63.9791 17.6825 64.2106 20.1419 64.2106 22.8951H52.2078C52.0956 22.6282 51.8563 22.3121 51.8395 21.9815C51.4537 15.8459 50.801 15.0344 44.7873 13.3466C32.2026 9.80462 19.5225 15.8705 14.5198 28.0947C13.5487 30.4621 12.4264 31.2408 9.97921 31.0566C7.16377 30.8449 4.32411 31.0071 0.00012207 31.0071H0.000494828Z" fill="white"/>
<path d="M55.4227 54.6872C58.2161 57.6845 60.8071 60.4623 63.4332 63.2796C57.2149 72.2955 39.8462 76.6411 26.4218 72.3477C13.0927 68.086 1.17452 54.4606 1.50068 43.4788C4.9185 43.4788 8.3583 43.3666 11.781 43.5585C12.5876 43.6059 13.7573 44.5217 14.0458 45.2978C20.348 62.0652 41.1953 67.5581 55.4227 54.6868V54.6872Z" fill="white"/>
<path d="M382.873 62.0151V74.334H369.603H355.816C360.149 70.0122 363.811 66.3163 367.544 62.6946C368.002 62.2536 368.863 62.0524 369.543 62.0419C373.847 61.9849 378.153 62.0151 382.873 62.0151Z" fill="white"/>
</svg>
