<svg width="78" height="16" viewBox="0 0 78 16" fill="none" xmlns="http://www.w3.org/2000/svg">
<path d="M22.4322 13.0724C25.2113 13.0938 27.4428 10.9465 27.4763 8.21741C27.5114 5.38822 25.3165 3.13067 22.5148 3.11304C19.7257 3.09556 17.483 5.2891 17.4551 8.06157C17.4275 10.8358 19.6274 13.0502 22.4322 13.0723V13.0724ZM30.013 8.17284C29.9945 12.2707 26.6167 15.5669 22.4481 15.5539C18.2902 15.5408 14.95 12.2125 14.9619 8.09526C14.974 3.93971 18.356 0.594993 22.5238 0.617052C26.6738 0.63806 30.031 4.02554 30.013 8.17284Z" fill="white"/>
<path d="M45.5622 8.13931C45.5717 5.35529 43.3708 3.12768 40.5957 3.1132C37.8064 3.09812 35.5655 5.29362 35.54 8.06571C35.5148 10.8398 37.7159 13.0513 40.5211 13.0723C43.3348 13.0929 45.5523 10.923 45.5622 8.13924V8.13931ZM48.0978 8.16047C48.0863 12.2582 44.7114 15.5625 40.5456 15.5534C36.3841 15.5449 33.0479 12.2316 33.0474 8.10773C33.0468 3.95788 36.4272 0.604082 40.5962 0.616612C44.7436 0.629667 48.1099 4.014 48.0979 8.16047H48.0978Z" fill="white"/>
<path d="M50.7142 15.4511V9.3572H53.1556C53.155 10.5587 53.155 11.7336 53.155 12.8975C56.573 13.421 59.5104 12.7588 60.5381 9.21547C61.3642 6.3667 59.0851 3.2539 56.1041 3.09116C55.3595 3.05094 54.6051 3.1292 53.867 3.04899C53.4672 3.00593 53.0313 2.81805 52.7166 2.56596C52.0413 2.02545 51.4351 1.40068 50.667 0.687157C51.0338 0.632086 51.1857 0.588419 51.3379 0.58947C53.1039 0.601549 54.8901 0.460195 56.6331 0.669676C60.4835 1.13155 63.2276 4.37573 63.1759 8.17137C63.1249 11.9164 60.3006 15.0488 56.4373 15.4201C54.5704 15.5995 52.6716 15.4512 50.7142 15.4512V15.4511Z" fill="white"/>
<path d="M72.2559 8.09534C69.6486 5.51412 67.2217 3.11117 64.7181 0.632141H77.0967C77.0967 1.28399 77.1363 1.94627 77.0687 2.59715C77.0522 2.75253 76.6819 2.98445 76.47 2.98842C74.8277 3.02196 73.1848 3.00546 71.5415 3.00898C71.3021 3.00943 71.063 3.03352 70.775 3.04942C72.4413 4.69136 74.0547 6.28152 75.7044 7.90777C75.5056 8.13473 75.421 8.2439 75.3233 8.34121C73.0491 10.5908 70.7836 12.8478 68.4869 15.0739C68.2373 15.3158 67.8126 15.4723 67.4574 15.4962C66.574 15.5558 65.6837 15.5158 64.7158 15.5158C67.2499 13.0216 69.7104 10.6003 72.2561 8.09519L72.2559 8.09534Z" fill="white"/>
<path d="M7.50289e-05 6.79511C0.461053 5.76503 0.747138 4.86761 1.2301 4.09061C3.58533 0.301351 8.71431 -0.580463 12.2203 2.13814C12.7349 2.53691 13.015 2.96083 12.9353 3.63024C12.8777 4.11312 12.9243 4.60816 12.9243 5.16233H10.5084C10.4858 5.10861 10.4377 5.04498 10.4343 4.97843C10.3566 3.74345 10.2252 3.58012 9.0148 3.24039C6.48175 2.52746 3.92949 3.74841 2.92253 6.20891C2.72708 6.68541 2.50116 6.84215 2.0086 6.80509C1.44191 6.76247 0.870336 6.79511 0 6.79511H7.50289e-05Z" fill="white"/>
<path d="M11.1551 11.5615C11.7173 12.1648 12.2389 12.7239 12.7674 13.291C11.5158 15.1057 8.01984 15.9804 5.31774 15.1162C2.63486 14.2584 0.235959 11.5159 0.30161 9.30545C0.98955 9.30545 1.68192 9.28287 2.37083 9.32151C2.5332 9.33103 2.76864 9.51538 2.82671 9.67159C4.09522 13.0465 8.29137 14.1522 11.1551 11.5614V11.5615Z" fill="white"/>
<path d="M77.0647 13.0364V15.516H74.3937H71.6187C72.4908 14.6461 73.2279 13.9022 73.9793 13.1732C74.0716 13.0844 74.2449 13.0439 74.3817 13.0418C75.248 13.0303 76.1148 13.0364 77.0647 13.0364Z" fill="white"/>
</svg>
